# xmcd
#
# Track frame offsets:
#	150
#	20475
#	41735
#	62762
#	76152
#	92947
#	112167
#	129172
#	142875
#	163775
#
# Disc length: 2381 seconds
#
# Revision: 1
# Processed by: cddbd v1.5.1PL0 Copyright (c) Steve Scherf et al.
# Submitted via: audiograbber 1.83.01
#
DISCID=81094b0a
DTITLE=Lionel CARTWRIGHT - Miles and Years
DYEAR=1999
DGENRE=Country
TTITLE0=City Limits
TTITLE1=Miles and Years
TTITLE2=If That's What You Call Love
TTITLE3=You Keep Me Guessing
TTITLE4=Wild Life Sanctuary
TTITLE5=(I Need T Know) You Still Believe
TTITLE6=Devil's Triangle
TTITLE7=Smoke and Mirrors
TTITLE8=Simple Questions
TTITLE9=I Believe
EXTD=
EXTT0=
EXTT1=
EXTT2=
EXTT3=
EXTT4=
EXTT5=
EXTT6=
EXTT7=
EXTT8=
EXTT9=
PLAYORDER=
